<svg width="96" height="25" viewBox="0 0 96 25" fill="none" xmlns="http://www.w3.org/2000/svg">
<path d="M5.5625 24.5H6.0625V24V1.59375V1.09375H5.5625H1.07812H0.578125V1.59375V24V24.5H1.07812H5.5625ZM26.586 18.7088L26.5874 18.7064C27.0992 17.8351 27.491 16.9045 27.7628 15.9157C28.0463 14.912 28.1875 13.8719 28.1875 12.7969C28.1875 11.7224 28.0465 10.6875 27.7629 9.69379C27.4912 8.69504 27.0993 7.76377 26.5866 6.90174C26.0762 6.03319 25.4676 5.24506 24.7611 4.53836C24.0537 3.82028 23.2643 3.20524 22.3939 2.69389C21.5222 2.18175 20.5861 1.79004 19.5873 1.51834C18.5937 1.23477 17.5588 1.09375 16.4844 1.09375H9.73438H9.23438V1.59375V24V24.5H9.73438H16.4844C17.5582 24.5 18.5924 24.3644 19.5856 24.0915L19.5891 24.0905C20.5873 23.8084 21.5227 23.4117 22.3939 22.8999C23.2635 22.389 24.0524 21.7797 24.7598 21.0723L24.7625 21.0696C25.4676 20.3537 26.0756 19.5665 26.586 18.7088ZM22.2114 10.3823L22.2114 10.3823L22.2135 10.3873C22.539 11.1339 22.7031 11.9353 22.7031 12.7969C22.7031 13.6584 22.539 14.4659 22.2126 15.2242L22.2114 15.2271C21.8923 15.9812 21.4492 16.6406 20.8808 17.2089C20.324 17.7658 19.6646 18.2098 18.8977 18.5401C18.1503 18.8561 17.3475 19.0156 16.4844 19.0156H14.75V6.57812H16.4844C17.3459 6.57812 18.1474 6.74229 18.894 7.06773L18.8961 7.06865C19.6619 7.39823 20.3209 7.84646 20.8778 8.41302L20.8778 8.41307L20.8839 8.41906C21.4504 8.97597 21.8927 9.62898 22.2114 10.3823ZM46.0312 24.5H46.5312V24V19.5156V19.0156H46.0312H35.6562V15.5469H42.5156H43.0156V15.0469V10.5625V10.0625H42.5156H35.6562V6.57812H46.0312H46.5312V6.07812V1.59375V1.09375H46.0312H30.6719H30.1719V1.59375V24V24.5H30.6719H46.0312ZM67.0938 24.5H67.5938V24V1.59375V1.09375H67.0938H62.6094H62.1094V1.59375V14.515L54.4003 1.34122L54.2555 1.09375H53.9688H49.1719H48.6719V1.59375V24V24.5H49.1719H53.6562H54.1562V24V11.0927L61.8655 24.2527L62.0103 24.5H62.2969H67.0938ZM80.6719 24.5H81.1719V24V6.57812H87.3906H87.8906V6.07812V1.59375V1.09375H87.3906H69.4688H68.9688V1.59375V6.07812V6.57812H69.4688H75.7031V24V24.5H76.2031H80.6719ZM94.25 24.5H94.75V24V1.59375V1.09375H94.25H89.7656H89.2656V1.59375V24V24.5H89.7656H94.25Z" fill="white" stroke="#333333"/>
</svg>
