<svg width="97" height="97" viewBox="0 0 97 97" fill="none" xmlns="http://www.w3.org/2000/svg">
<g opacity="0.7">
<path fill-rule="evenodd" clip-rule="evenodd" d="M64.3966 41.5393C65.2274 39.835 66.1435 36.3837 65.6748 32.911C65.1635 29.1828 61.8826 23.6223 57.3235 22.8553C52.7643 22.0884 48.2691 25.071 48.2691 25.071C47.2891 24.368 44.2639 22.1097 41.9417 22.0245C39.5982 21.9393 37.553 21.9819 35.0177 23.7714C32.4825 25.561 30.5864 29.3958 30.5012 33.8697C30.4586 36.6606 31.5664 39.4728 32.589 41.5393H55.0691H64.3966Z" fill="#D1D3D4"/>
<path fill-rule="evenodd" clip-rule="evenodd" d="M58.0905 26.1575C54.1278 24.6875 50.57 26.7541 50.57 26.7541C50.57 26.7541 52.8283 28.1388 53.297 29.5236C53.7656 30.9084 52.1891 31.3132 51.5074 31.2706C50.8256 31.228 45.3291 25.9232 43.0282 25.2201C40.7273 24.5171 37.3186 23.6862 34.1655 29.1828C32.1416 32.7193 33.2921 36.4689 34.6129 39.3024H62.3513C62.7135 38.1519 62.9692 36.8737 63.0331 35.5954C63.1396 32.8045 62.0318 27.6275 58.0905 26.1575Z" fill="white"/>
<path fill-rule="evenodd" clip-rule="evenodd" d="M49.9602 41.5107L45.5076 41.5107L45.5075 49.4573H35.5583L36.6023 52.8021H45.5075V56.4238H37.4971L38.3705 59.8752H45.5075V63.1987H39.7979L40.4797 67.0122H45.5075V70.7191H42.2266L42.6953 74H52.6445L53.0067 70.7191H49.9388V67.0122H55.0519L55.5845 63.1987H49.9388V59.8752H57.4167L58.1197 56.4238H49.9602V52.8021H59.0997L59.9093 49.4573H49.9602V41.5107Z" fill="#313131"/>
<rect x="1.5" y="1" width="94" height="95" rx="47" stroke="#313131" stroke-width="2"/>
</g>
</svg>
