<svg width="98" height="97" viewBox="0 0 98 97" fill="none" xmlns="http://www.w3.org/2000/svg">
<g opacity="0.7">
<path d="M43.071 70.9394H47.0245V63.5694H44.1692L24.0604 43.2409C24.0604 43.2409 22.9866 40.8494 24.7681 39.5559C26.574 38.3113 28.1847 39.1411 28.1847 39.1411L47.0977 57.9077H59.1044L73.7712 62.6909C76.0408 63.3986 74.7229 69.6948 70.8915 68.3038L57.9575 63.5206H56.3956V70.9394H61.2032V74.7708H43.0466V70.9394H43.071Z" fill="#D1D3D4"/>
<path d="M72.9659 54.8816C76.4556 56.5655 73.5516 61.7147 70.013 59.982L61.9841 56.0774C46.7073 56.0774 49.9774 58.0297 39.5081 47.7801C38.2635 46.5599 38.2147 44.5587 39.4349 43.3141C40.6551 42.0695 42.6562 42.0695 43.9008 43.2897L50.9535 50.1716L61.7645 50.0984C63.6192 49.7812 70.8671 53.881 72.9659 54.8816ZM36.4332 32.5764C39.3129 32.5764 41.6068 34.8704 41.6068 37.75C41.6068 40.6053 39.3129 42.8993 36.4332 42.8993C33.5779 42.8993 31.284 40.6053 31.284 37.75C31.284 34.8704 33.6023 32.5764 36.4332 32.5764Z" fill="#313131"/>
<path d="M58.1527 22.2292H46.0972L43.9984 26.451C42.2413 25.5481 40.4843 25.8165 38.7516 26.9147L46.0972 32.0151C46.9513 30.5265 46.7073 28.9402 45.4627 27.2076L47.0245 24.2059H56.8837V46.7795C56.8837 47.4628 57.4694 48.0241 58.1771 48.0241C58.8848 48.0241 59.4217 47.4384 59.4217 46.7795V45.1444H74.3569C74.601 45.1444 74.7718 44.9492 74.7718 44.7052V40.8005C74.7718 40.5565 74.601 40.3857 74.3569 40.3857H72.7951V39.4095C72.7951 39.2143 72.6242 39.0435 72.4534 39.0435H71.4284C71.2332 39.0435 71.0868 39.2143 71.0868 39.4095V40.3857H70.3059V39.4095C70.3059 39.2143 70.1594 39.0435 69.9642 39.0435H68.9392C68.7684 39.0435 68.5976 39.2143 68.5976 39.4095V40.3857H67.8167V39.4095C67.8167 39.2143 67.6702 39.0435 67.475 39.0435H66.45C66.2792 39.0435 66.1084 39.2143 66.1084 39.4095V40.3857H65.3275V39.4095C65.3275 39.2143 65.181 39.0435 64.9858 39.0435H64.0097C63.8144 39.0435 63.6436 39.2143 63.6436 39.4095V40.3857H62.8871V39.4095C62.8871 39.2143 62.7162 39.0435 62.521 39.0435H61.5449C61.3496 39.0435 61.1788 39.2143 61.1788 39.4095V40.3857H59.3485V23.4982C59.3973 22.7904 58.8604 22.2292 58.1527 22.2292Z" fill="#D1D3D4"/>
<rect x="1.5" y="1" width="95" height="95" rx="47.5" stroke="#313131" stroke-width="2"/>
</g>
</svg>
