<svg width="97" height="97" viewBox="0 0 97 97" fill="none" xmlns="http://www.w3.org/2000/svg">
<g opacity="0.7">
<path fill-rule="evenodd" clip-rule="evenodd" d="M26.3735 49.7729L46.5474 70.2415L42.4983 74.8113L22.2292 54.0571L26.3735 49.7729Z" fill="#313131"/>
<path fill-rule="evenodd" clip-rule="evenodd" d="M59.1947 28.9235L67.5548 22.6164C67.5548 22.6164 68.1503 21.8309 69.1745 22.4974C70.1986 23.1876 74.4382 27.6621 74.4382 27.6621C74.4382 27.6621 75.0575 27.9715 74.7002 29.0187C74.343 30.066 68.4599 37.4204 68.4599 37.4204C68.4599 37.4204 67.8407 38.2296 66.8879 37.8012C65.9352 37.3728 59.3376 30.304 59.3376 30.304C59.3376 30.304 58.5755 29.3995 59.1947 28.9235Z" fill="#313131"/>
<path fill-rule="evenodd" clip-rule="evenodd" d="M57.0512 30.066L66.8165 39.8481C66.8165 39.8481 67.7931 40.6573 67.2453 41.3951C66.6975 42.1329 47.6669 66.124 47.6669 66.124C47.6669 66.124 47.0238 67.1712 45.952 66.6714C44.8802 66.1478 30.0654 50.844 30.0654 50.844C30.0654 50.844 29.3746 49.8681 30.1606 49.1541C30.9466 48.4401 55.3125 30.0422 55.3125 30.0422C55.3125 30.0422 56.3843 29.4234 57.0512 30.066Z" fill="#D1D3D4"/>
<path fill-rule="evenodd" clip-rule="evenodd" d="M33.0187 50.4156L55.9554 33.0173L64.2917 41.0857L46.5473 63.6487L33.0187 50.4156Z" fill="white"/>
<path fill-rule="evenodd" clip-rule="evenodd" d="M43.4479 44.9755L51.8866 53.5521L53.5521 51.6971L45.1578 43.4479L43.4479 44.9755Z" fill="#313131"/>
<rect x="1" y="1" width="95" height="95" rx="47.5" stroke="#313131" stroke-width="2"/>
</g>
</svg>
