<svg width="98" height="97" viewBox="0 0 98 97" fill="none" xmlns="http://www.w3.org/2000/svg">
<g opacity="0.7">
<path fill-rule="evenodd" clip-rule="evenodd" d="M53.1039 38.9651C53.1039 38.9651 57.2706 36.2027 61.4604 36.9163C65.6501 37.6299 68.6888 42.7635 69.1723 46.1936C69.6557 49.6237 68.6198 53.0537 67.8141 54.481C67.0083 55.9083 64.3379 58.5326 64.3379 58.5326C64.3379 58.5326 63.325 64.3799 62.0819 66.9812C60.8388 69.5825 58.79 73.473 57.5469 74.2097C56.3037 74.9463 54.7383 74.9693 53.9557 74.2097C53.196 73.45 53.4031 68.5005 53.7024 66.0604C54.0017 63.6202 54.2549 60.6966 52.3442 60.8807C50.4335 61.0649 49.5587 64.7252 49.3745 66.2215C49.1904 67.7178 47.9933 74.2557 46.0826 74.624C44.1719 74.9924 41.7778 74.3017 41.4785 69.8127C41.1792 65.3237 40.5577 58.1183 39.9131 56.737C39.2455 55.3558 36.5981 51.2121 36.6672 47.0914C36.7362 42.9707 38.4858 39.4255 40.8339 37.7681C43.182 36.1336 45.0697 36.0876 47.2336 36.1566C49.3976 36.2257 52.1831 38.2975 53.1039 38.9651Z" fill="#D1D3D4"/>
<path fill-rule="evenodd" clip-rule="evenodd" d="M55.2218 40.4845C55.2218 40.4845 58.5138 38.5738 62.151 39.932C65.8113 41.2902 66.8242 46.0785 66.7091 48.6338C66.594 51.1891 65.6962 53.7443 64.5222 54.9644C63.3481 56.1615 62.2201 57.0823 62.2201 57.0823C62.2201 57.0823 60.1022 64.7252 59.4346 66.4978C58.767 68.2704 56.2117 73.6572 55.5672 72.4601C54.8996 71.263 56.8103 63.4821 56.0506 61.3181C55.2909 59.1542 53.7025 58.0032 51.999 58.0952C50.2724 58.2104 48.753 59.7757 47.9473 62.1469C47.1416 64.518 45.7604 72.9435 44.9547 72.6212C44.1489 72.299 43.8497 70.3652 43.4583 64.7022C43.067 59.0391 43.067 57.4967 42.2152 55.4479C41.3865 53.376 37.1737 47.805 40.0973 42.7175C43.0209 37.6299 46.1517 38.4126 48.2696 39.0572C50.3875 39.7248 55.4751 44.6052 56.0966 44.6512C56.7182 44.6973 58.1685 44.3289 57.7311 43.0398C57.2937 41.7506 55.2218 40.4845 55.2218 40.4845Z" fill="white"/>
<path fill-rule="evenodd" clip-rule="evenodd" d="M39.9592 34.2459L36.1147 41.083L27.7812 43.0168L37.0125 46.1015L40.1203 53.5602L42.4914 45.6181L50.3644 43.9146L42.7446 40.7147L40.0512 34.2459" fill="#313131"/>
<path fill-rule="evenodd" clip-rule="evenodd" d="M51.0091 22.2292L48.2466 27.1556L42.2612 28.5368L48.8912 30.7468L51.1242 36.1336L52.8277 30.4015L58.4908 29.1814L53.0119 26.9023L51.0781 22.2292" fill="#313131"/>
<path fill-rule="evenodd" clip-rule="evenodd" d="M53.3111 48.5877L51.9529 51.0279L48.9832 51.7185L52.2752 52.8235L53.3572 55.4709L54.2089 52.6394L57.0174 52.0408L54.301 50.9128L53.3341 48.5877" fill="#313131"/>
<rect x="1.5" y="1" width="95" height="95" rx="47.5" stroke="#313131" stroke-width="2"/>
</g>
</svg>
